# xmcd
#
# Track frame offsets: 
#        150
#        18092
#        39540
#        60312
#        80205
#        100782
#        121550
#        145330
#        165765
#        187422
#
# Disc length: 2792 seconds
#
# Revision: 1
# Processed by: cddbd v1.5.2PL0 Copyright (c) Steve Scherf et al.
# Submitted via: ExactAudioCopy v0.95b3
#
DISCID=770ae60a
DTITLE=이문세 - 10집 화무
DYEAR=1996
DGENRE=Ballad
TTITLE0=조조할인
TTITLE1=난 괜찮아
TTITLE2=화장(花葬)
TTITLE3=장난인 줄로만 알았지
TTITLE4=그대와 영원히
TTITLE5=꿈
TTITLE6=뭐 세상이란 다 그렇지
TTITLE7=겨울의 미소
TTITLE8=짝짝이 신발
TTITLE9=MY Dream
EXTD=
EXTT0=
EXTT1=
EXTT2=
EXTT3=
EXTT4=
EXTT5=
EXTT6=
EXTT7=
EXTT8=
EXTT9=
PLAYORDER=
